<?xml version="1.0" encoding="UTF-8"?>
<svg width="857.74mm" height="100%" version="1.1" viewBox="0 0 857.74 108.85" xmlns="http://www.w3.org/2000/svg" xmlns:cc="http://creativecommons.org/ns#" xmlns:dc="http://purl.org/dc/elements/1.1/" xmlns:rdf="http://www.w3.org/1999/02/22-rdf-syntax-ns#">
 <metadata>
  <rdf:RDF>
   <cc:Work rdf:about="">
    <dc:format>image/svg+xml</dc:format>
    <dc:type rdf:resource="http://purl.org/dc/dcmitype/StillImage"/>
    <dc:title/>
   </cc:Work>
  </rdf:RDF>
 </metadata>
 <g transform="translate(321.96 113.01)">
  <path d="m440.63-27.994c-51.565-13.098-94.785-23.721-96.045-23.608-1.2594.11322-24.202 7.9321-50.984 17.375l-48.694 17.17-34.478-21.521c-18.963-11.836-35.256-21.521-36.207-21.521-.95102 0-12.836 5.698-26.412 12.662-13.576 6.9642-25.73 12.967-27.01 13.34-1.3416.39055-23.543-1.469-52.409-4.3896l-50.081-5.0672-57.276 4.1414c-81.338 5.8812-276.28 19.379-279.88 19.379-3.4259 0-4.325-61.945-1.1832-81.523l1.839-11.459h853.97v54.429c0 29.936-.31533 54.424-.70071 54.418-.38538-.006-42.89-10.727-94.456-23.825z" fill="#28170b"/>
 </g>
</svg>
